<svg width="45" height="45" viewBox="0 0 45 45" fill="none" xmlns="http://www.w3.org/2000/svg">
                            <path d="M13.6612 30.8388C13.2707 30.4483 13.2707 29.8152 13.6612 29.4246L29.9246 13.1612C30.3152 12.7707 30.9483 12.7707 31.3388 13.1612C31.7294 13.5517 31.7294 14.1849 31.3388 14.5754L15.0754 30.8388C14.6849 31.2294 14.0517 31.2294 13.6612 30.8388Z" fill="#2B5DA8"></path>
                            <path d="M31.3389 30.8388C30.9483 31.2294 30.3152 31.2294 29.9246 30.8388L13.6612 14.5754C13.2707 14.1849 13.2707 13.5517 13.6612 13.1612C14.0517 12.7707 14.6849 12.7707 15.0754 13.1612L31.3389 29.4246C31.7294 29.8152 31.7294 30.4483 31.3389 30.8388Z" fill="#2B5DA8"></path>
                        </svg>