<svg width="329" height="132" viewBox="0 0 329 132" fill="none" xmlns="http://www.w3.org/2000/svg">
<path d="M54 125L16.1346 101.282C11.329 98.272 8.22278 93.1734 7.75187 87.5224L7.5 84.5C8.35584 86.4409 12 91.7857 16 93.5C19.5 95 34.2463 96.9868 36.5 96.5C34.5 96.932 34.7496 99.8183 35.5 101C40.4686 108.825 46.3364 114.339 54 125Z" fill="white"/>
<path d="M16.5879 46.1909C17.2523 41.1033 21.4995 37.2235 26.6157 37.0306L308.77 26.3943C314.066 26.1946 318.643 30.0002 319.415 35.2446L326.583 83.9644C327.515 90.2973 322.584 96.0106 316.186 96.0106L21.8901 96.0106C15.6179 96.0106 10.801 90.5087 11.6151 84.2744L16.5879 46.1909Z" fill="white" stroke="white" stroke-width="1.11201"/>
<path d="M13.0984 42.1933C13.6645 37.5515 17.5296 33.9971 22.193 33.8297L305.892 23.6444C310.723 23.4709 314.879 26.9801 315.518 31.7733L322.22 81.9911C322.979 87.6784 318.535 92.7585 312.801 92.7585L17.5175 92.7585C11.878 92.7585 7.53186 87.837 8.21617 82.2259L13.0984 42.1933Z" fill="#BF1A69" stroke="white" stroke-width="1.11201"/>
</svg>
