<svg width="231" height="93" viewBox="0 0 231 93" fill="none" xmlns="http://www.w3.org/2000/svg">
<path d="M37.7822 87.8402L11.1776 71.1758C7.80113 69.0609 5.61865 65.4785 5.28779 61.5081L5.11082 59.3845C5.71214 60.7482 8.27257 64.5035 11.083 65.708C13.5421 66.7619 23.9031 68.1579 25.4865 67.8158C24.0813 68.1194 24.2567 70.1473 24.7839 70.9776C28.2749 76.4753 32.3977 80.3495 37.7822 87.8402Z" fill="white"/>
<path d="M11.4961 32.4681C11.9629 28.8936 14.947 26.1676 18.5417 26.0321L216.786 18.5588C220.507 18.4186 223.723 21.0924 224.265 24.7772L229.302 59.0082C229.957 63.4578 226.492 67.472 221.997 67.472L15.2215 67.472C10.8146 67.472 7.43012 63.6063 8.0021 59.226L11.4961 32.4681Z" fill="white" stroke="white" stroke-width="0.781312"/>
<path d="M9.04432 29.6594C9.44207 26.3981 12.1577 23.9007 15.4343 23.783L214.764 16.6267C218.158 16.5049 221.078 18.9705 221.528 22.3382L226.236 57.6218C226.77 61.6177 223.647 65.187 219.618 65.187L12.1492 65.187C8.18687 65.187 5.1332 61.7291 5.61401 57.7867L9.04432 29.6594Z" fill="#BF1A69" stroke="white" stroke-width="0.781312"/>
</svg>
