<svg width="583" height="103" viewBox="0 0 583 103" fill="none" xmlns="http://www.w3.org/2000/svg">
<path d="M46.726 102.057L8.8606 78.3394C4.05497 75.3293 0.948732 70.2306 0.47782 64.5797L0.225952 61.5573C1.08179 63.4982 4.72595 68.843 8.72595 70.5573C12.226 72.0573 26.9723 74.044 29.226 73.5573C27.226 73.9892 27.4756 76.8756 28.226 78.0572C33.1946 85.882 39.0624 91.396 46.726 102.057Z" fill="white"/>
<path d="M9.294 23.4076C9.96712 18.2526 14.3132 14.3483 19.4966 14.2382L535.109 3.28703C540.34 3.17593 544.816 6.96058 545.578 12.1389L552.77 61.0178C553.703 67.3525 548.768 73.0683 542.37 73.0683L14.6123 73.0683C8.34332 73.0683 3.52731 67.5702 4.34146 61.3353L9.294 23.4076Z" fill="white" stroke="white" stroke-width="1.11201"/>
<path d="M5.8082 19.3905C6.38144 14.6901 10.3326 11.114 15.054 11.0186L532.459 0.557962C537.233 0.461439 541.301 3.95167 541.933 8.68755L548.653 59.0449C549.412 64.734 544.966 69.8166 539.23 69.8166L10.2396 69.8161C4.60336 69.8161 0.258196 64.8984 0.942569 59.2868L5.8082 19.3905Z" fill="#BF1A69" stroke="white" stroke-width="1.11201"/>
</svg>
